<?xml version="1.0" encoding="utf-8"?>
<!-- Generator: Adobe Illustrator 15.0.0, SVG Export Plug-In . SVG Version: 6.00 Build 0)  -->
<!DOCTYPE svg PUBLIC "-//W3C//DTD SVG 1.1//EN" "http://www.w3.org/Graphics/SVG/1.1/DTD/svg11.dtd">
<svg version="1.1" id="Layer_1" xmlns="http://www.w3.org/2000/svg" xmlns:xlink="http://www.w3.org/1999/xlink" x="0px" y="0px"
	 width="80px" height="64px" viewBox="0 0 80 64" enable-background="new 0 0 80 64" xml:space="preserve">
<g>
	<image overflow="visible" width="124" height="130" xlink:href="F07EB0DA.png"  transform="matrix(1 0 0 1 -21 -33)">
	</image>
</g>
<path fill="#FFFFFF" d="M65.004,43.644l-5.458-3.225l4.4-2.7c1.112-0.685,1.561-1.984,0.995-2.904
	c-0.563-0.918-1.924-1.11-3.04-0.426l-5.472,3.359c-0.224,0.138-0.42,0.302-0.588,0.481l-10.56-6.241l10.575-6.232
	c0.146,0.143,0.312,0.274,0.495,0.387l5.468,3.366c1.113,0.686,2.475,0.497,3.039-0.421c0.567-0.919,0.122-2.219-0.991-2.905
	l-4.272-2.63l5.479-3.229c1.03-0.607,1.422-1.852,0.875-2.781c-0.547-0.93-1.827-1.19-2.857-0.583l-5.463,3.219l-0.236-5.156
	c-0.061-1.306-0.981-2.325-2.06-2.275c-1.078,0.05-1.901,1.149-1.842,2.455l0.296,6.414c0.011,0.263,0.059,0.515,0.136,0.748
	L42.881,28.87V15.971c0.24-0.052,0.48-0.139,0.714-0.262l5.675-3.001c1.156-0.611,1.684-1.88,1.18-2.833
	c-0.504-0.954-1.851-1.23-3.006-0.619l-4.563,2.413v-6.34c0-1.196-0.875-2.166-1.953-2.166s-1.952,0.97-1.952,2.166v6.36
	l-4.435-2.345c-1.156-0.611-2.501-0.334-3.005,0.62c-0.505,0.953,0.024,2.221,1.18,2.833l5.675,3.002
	c0.192,0.101,0.388,0.177,0.585,0.23v12.807L28.14,22.452c0.076-0.233,0.124-0.484,0.136-0.748l0.295-6.413
	c0.06-1.306-0.764-2.405-1.842-2.455c-1.078-0.05-2,0.968-2.06,2.275l-0.237,5.156l-5.462-3.218
	c-1.031-0.607-2.31-0.347-2.857,0.583c-0.548,0.929-0.156,2.174,0.875,2.782l5.48,3.229l-4.272,2.629
	c-1.114,0.686-1.558,1.986-0.993,2.904c0.566,0.918,1.927,1.107,3.041,0.421l5.468-3.365c0.185-0.114,0.349-0.245,0.496-0.387
	l10.576,6.232l-10.561,6.239c-0.167-0.179-0.364-0.343-0.588-0.48l-5.472-3.358c-1.115-0.686-2.476-0.493-3.04,0.425
	c-0.564,0.919-0.118,2.22,0.997,2.903l4.398,2.701l-5.458,3.224c-1.03,0.609-1.42,1.854-0.872,2.784
	c0.549,0.929,1.829,1.187,2.858,0.578l5.476-3.235l0.237,5.011c0.062,1.306,0.985,2.323,2.062,2.272
	c1.078-0.051,1.9-1.149,1.839-2.457l-0.303-6.413c-0.011-0.217-0.045-0.424-0.1-0.62l10.806-6.387v12.903
	c-0.197,0.055-0.394,0.13-0.585,0.231L32.803,51.4c-1.156,0.612-1.684,1.88-1.18,2.834c0.504,0.951,1.85,1.23,3.006,0.618
	l4.435-2.345v6.36c0,1.196,0.874,2.165,1.952,2.165s1.954-0.969,1.954-2.165v-6.34l4.563,2.412c1.155,0.613,2.502,0.336,3.006-0.617
	c0.503-0.954-0.024-2.223-1.181-2.835l-5.676-3c-0.232-0.124-0.473-0.209-0.712-0.262V35.159l10.835,6.403
	c-0.055,0.196-0.09,0.403-0.1,0.62l-0.303,6.413c-0.063,1.306,0.762,2.408,1.838,2.457c1.078,0.052,2.001-0.967,2.064-2.272
	l0.235-5.011l5.477,3.235c1.029,0.609,2.309,0.351,2.858-0.578C66.425,45.498,66.033,44.252,65.004,43.644z"/>
</svg>
